# xmcd
#
# Track frame offsets:
#	150
#	14335
#	41730
#	61238
#	78827
#	98717
#	115713
#	135588
#	153088
#	169427
#	183260
#	196544
#	209464
#	233674
#	243126
#	271410
#	288665
#	314274
#
# Disc length: 4497 seconds
# Revision: 0
# Processed by: cddbd v1.5.2PL0 Copyright (c) Steve Scherf et al.
# Submitted via: dBpowerAMP V12.0
#
DISCID=e9118f12
DTITLE=Paul Oscher - The Best of Paul Oscher Vol. 1 - True to the Spirit of the Blues
DYEAR=2012
DGENRE=Blues
TTITLE0=Deborah Lou
TTITLE1=Straw and a Pipe
TTITLE2=I'm Sorry
TTITLE3=Sunnymoon for Two
TTITLE4=Satan's Woman
TTITLE5=Ode to Billie Joe
TTITLE6=Maxine
TTITLE7=My Baby's Gone
TTITLE8=Take a little Walk
TTITLE9=Make me a Pallet
TTITLE10=Louis Collins
TTITLE11=Sandra Lee
TTITLE12=Things I used to do
TTITLE13=Cannonball Rock
TTITLE14=That's Alright
TTITLE15=Summer Jam
TTITLE16=Dirty Dealin' Mama
TTITLE17=Downtrack
EXTD=
EXTT0=
EXTT1=
EXTT2=
EXTT3=
EXTT4=
EXTT5=
EXTT6=
EXTT7=
EXTT8=
EXTT9=
EXTT10=
EXTT11=
EXTT12=
EXTT13=
EXTT14=
EXTT15=
EXTT16=
EXTT17=
PLAYORDER=
